<svg width="24" height="24" viewBox="0 0 24 24" fill="none" xmlns="http://www.w3.org/2000/svg">
<path fill-rule="evenodd" clip-rule="evenodd" d="M8.77074 7.74502C8.05311 7.46478 7.26305 7.42925 6.52317 7.64394C5.78328 7.85862 5.13495 8.31153 4.67878 8.93236C4.22261 9.55319 3.98411 10.3072 4.00031 11.0775C4.0165 11.8477 4.28647 12.591 4.76833 13.1922C5.25019 13.7933 5.91699 14.2185 6.66524 14.4019C7.41349 14.5853 8.20136 14.5166 8.90658 14.2065C9.61179 13.8963 10.1949 13.3621 10.5655 12.6866C10.936 12.0112 11.0732 11.2323 10.9558 10.4709C10.9459 10.406 10.9488 10.3398 10.9644 10.2761C10.98 10.2123 11.008 10.1522 11.0468 10.0993C11.0857 10.0464 11.1345 10.0016 11.1906 9.96757C11.2468 9.93353 11.309 9.91087 11.3739 9.90089C11.4388 9.89092 11.505 9.89382 11.5688 9.90943C11.6325 9.92504 11.6926 9.95306 11.7455 9.99188C11.7985 10.0307 11.8432 10.0796 11.8773 10.1357C11.9113 10.1918 11.934 10.2541 11.9439 10.319C12.0947 11.2979 11.9181 12.2992 11.4416 13.1675C10.9651 14.0359 10.2153 14.7226 9.30862 15.1213C8.40192 15.5199 7.38899 15.6082 6.42701 15.3723C5.46503 15.1365 4.6078 14.5897 3.98833 13.8168C3.36886 13.044 3.0218 12.0883 3.00099 11.098C2.98019 10.1078 3.28681 9.13834 3.87327 8.34015C4.45974 7.54197 5.29325 6.95967 6.24448 6.68361C7.1957 6.40756 8.21144 6.45318 9.13409 6.8134C9.19607 6.83664 9.25281 6.87196 9.30102 6.91732C9.34923 6.96267 9.38796 7.01714 9.41495 7.07758C9.44194 7.13802 9.45665 7.20322 9.45824 7.26939C9.45982 7.33557 9.44825 7.40139 9.42418 7.46306C9.40012 7.52472 9.36405 7.58099 9.31806 7.6286C9.27208 7.67621 9.21709 7.71421 9.1563 7.74039C9.09551 7.76658 9.03012 7.78042 8.96393 7.78113C8.89775 7.78184 8.83208 7.7699 8.77074 7.74502Z" fill="#F6B83D"/>
<path fill-rule="evenodd" clip-rule="evenodd" d="M6.99805 19.5002V15.5019C6.99805 15.3693 7.0507 15.2422 7.14443 15.1485C7.23816 15.0547 7.36529 15.0021 7.49784 15.0021C7.6304 15.0021 7.75752 15.0547 7.85125 15.1485C7.94498 15.2422 7.99764 15.3693 7.99764 15.5019V19.5002C7.99764 19.6328 7.94498 19.7599 7.85125 19.8537C7.75752 19.9474 7.6304 20 7.49784 20C7.36529 20 7.23816 19.9474 7.14443 19.8537C7.0507 19.7599 6.99805 19.6328 6.99805 19.5002Z" fill="#F6B83D"/>
<path fill-rule="evenodd" clip-rule="evenodd" d="M5.49805 17.0012C5.49805 16.8687 5.5507 16.7416 5.64443 16.6478C5.73816 16.5541 5.86529 16.5014 5.99784 16.5014H8.99663C9.12918 16.5014 9.25631 16.5541 9.35004 16.6478C9.44377 16.7416 9.49642 16.8687 9.49642 17.0012C9.49642 17.1338 9.44377 17.2609 9.35004 17.3546C9.25631 17.4484 9.12918 17.501 8.99663 17.501H5.99784C5.86529 17.501 5.73816 17.4484 5.64443 17.3546C5.5507 17.2609 5.49805 17.1338 5.49805 17.0012ZM14.4454 7.63654C13.8915 7.48018 13.3076 7.46287 12.7455 7.58615C12.1833 7.70944 11.6602 7.9695 11.2226 8.3433C10.785 8.7171 10.4463 9.19309 10.2367 9.72908C10.027 10.2651 9.95285 10.8445 10.0207 11.416C10.0288 11.4814 10.0239 11.5477 10.0063 11.6111C9.98874 11.6746 9.95877 11.7339 9.91816 11.7858C9.87755 11.8376 9.8271 11.8809 9.7697 11.9132C9.7123 11.9455 9.64909 11.9661 9.58369 11.9739C9.5183 11.9816 9.45202 11.9764 9.38865 11.9585C9.32529 11.9406 9.26609 11.9103 9.21446 11.8694C9.16283 11.8285 9.11979 11.7778 9.08781 11.7203C9.05583 11.6627 9.03554 11.5994 9.02811 11.534C8.91134 10.5504 9.12249 9.55575 9.62878 8.70443C10.1351 7.85311 10.9082 7.1927 11.8282 6.82568C12.7482 6.45867 13.7636 6.40557 14.7168 6.67463C15.6701 6.9437 16.5079 7.51987 17.1002 8.31374C17.6925 9.10761 18.0062 10.0748 17.9927 11.0652C17.9791 12.0556 17.6391 13.0138 17.0252 13.7912C16.4114 14.5686 15.5582 15.1216 14.5979 15.3645C13.6377 15.6074 12.6241 15.5265 11.7145 15.1345C11.6542 15.1085 11.5997 15.071 11.5539 15.0239C11.5081 14.9769 11.4721 14.9212 11.4478 14.8603C11.3988 14.7371 11.4007 14.5995 11.4531 14.4778C11.5056 14.356 11.6042 14.2601 11.7274 14.2111C11.8505 14.162 11.9881 14.1639 12.1099 14.2164C12.5496 14.4058 13.0235 14.503 13.5023 14.5019C13.9811 14.5008 14.4546 14.4014 14.8934 14.2099C15.3323 14.0184 15.7271 13.7389 16.0536 13.3887C16.38 13.0384 16.6311 12.6249 16.7913 12.1736C16.9514 11.7224 17.0173 11.2431 16.9847 10.7654C16.9522 10.2877 16.8219 9.82182 16.602 9.39651C16.3821 8.97119 16.0772 8.59554 15.7063 8.29281C15.3353 7.99008 14.9062 7.76672 14.4454 7.63654Z" fill="#F6B83D"/>
<path fill-rule="evenodd" clip-rule="evenodd" d="M16.3905 8.60814C16.2968 8.51441 16.2441 8.38731 16.2441 8.25478C16.2441 8.12225 16.2968 7.99515 16.3905 7.90143L20.139 4.15295C20.1851 4.10521 20.2402 4.06714 20.3012 4.04094C20.3622 4.01475 20.4277 4.00096 20.4941 4.00039C20.5605 3.99981 20.6263 4.01245 20.6877 4.03758C20.7491 4.06271 20.8049 4.09983 20.8519 4.14675C20.8988 4.19368 20.9359 4.24948 20.961 4.31091C20.9862 4.37233 20.9988 4.43814 20.9982 4.50451C20.9977 4.57087 20.9839 4.63645 20.9577 4.69743C20.9315 4.75841 20.8934 4.81356 20.8457 4.85966L17.0972 8.60814C17.0035 8.70184 16.8764 8.75447 16.7438 8.75447C16.6113 8.75447 16.4842 8.70184 16.3905 8.60814Z" fill="#F6B83D"/>
<path fill-rule="evenodd" clip-rule="evenodd" d="M20.455 7.50508C20.3893 7.50423 20.3245 7.49046 20.2642 7.46456C20.2039 7.43865 20.1493 7.40112 20.1035 7.35411C20.0577 7.30709 20.0216 7.25151 19.9972 7.19055C19.9729 7.12958 19.9608 7.06442 19.9617 6.99878L19.9867 5.01259L18.0005 5.03758C17.8679 5.0393 17.7401 4.9883 17.6452 4.89579C17.5502 4.80327 17.4959 4.67683 17.4942 4.54428C17.4925 4.41172 17.5435 4.28391 17.636 4.18897C17.7285 4.09402 17.8549 4.03971 17.9875 4.03798L20.9993 4L20.9613 7.01178C20.9604 7.07741 20.9467 7.14224 20.9208 7.20255C20.8949 7.26287 20.8573 7.31749 20.8103 7.3633C20.7633 7.4091 20.7077 7.4452 20.6467 7.46953C20.5858 7.49386 20.5206 7.50594 20.455 7.50508Z" fill="#F6B83D"/>
</svg>
