<svg xmlns="http://www.w3.org/2000/svg" aria-hidden="true" style="position:absolute;width:0;height:0;overflow:hidden">
  <defs>
    <symbol id="icon-reproductive" viewBox="0 0 32 32">
      <path d="M11.694 10.327a4.665 4.665 0 1 0 2.912 3.635.654.654 0 0 1 .313-.672.653.653 0 0 1 .504-.078.67.67 0 0 1 .501.546 5.993 5.993 0 0 1-3.514 6.403 5.997 5.997 0 1 1-.232-11.077.665.665 0 0 1 .433.609.669.669 0 0 1-.403.628.665.665 0 0 1-.515.006z"/>
      <path d="M9.331 26v-5.331a.665.665 0 1 1 1.332 0V26a.665.665 0 1 1-1.332 0z"/>
      <path d="M7.332 22.668a.665.665 0 0 1 .666-.666h3.998a.665.665 0 1 1 0 1.332H7.998a.665.665 0 0 1-.666-.666zm11.93-12.486a4.665 4.665 0 0 0-5.9 5.04.672.672 0 0 1-.137.493.66.66 0 0 1-.446.251.648.648 0 0 1-.492-.139.673.673 0 0 1-.249-.448 5.997 5.997 0 1 1 3.582 4.801.655.655 0 0 1-.355-.365.668.668 0 0 1 .883-.859 4.665 4.665 0 1 0 3.115-8.773z"/>
      <path d="M21.855 11.477a.665.665 0 0 1 0-.942l4.998-4.998a.658.658 0 0 1 .473-.203.655.655 0 0 1 .477.196.673.673 0 0 1 .196.477.669.669 0 0 1-.203.473l-4.998 4.998a.667.667 0 0 1-.942 0z"/>
      <path d="M27.273 10.007a.669.669 0 0 1-.657-.675l.033-2.648-2.648.033a.67.67 0 0 1-.675-.658.67.67 0 0 1 .658-.675L28 5.333l-.051 4.016a.65.65 0 0 1-.201.468c-.063.061-.137.109-.218.142s-.168.049-.256.047z"/>
    </symbol>

    <symbol id="icon-female" viewBox="0 0 32 32">
      <path stroke-linejoin="round" stroke-linecap="round" stroke-width="2" d="M16 17.333a6.667 6.667 0 1 0 0-13.334 6.667 6.667 0 0 0 0 13.334zm0 0V28m-4-4h8"/>
    </symbol>

    <symbol id="icon-male" viewBox="0 0 32 32">
      <path stroke-linejoin="round" stroke-linecap="round" stroke-width="2" d="M16 14.667a6.667 6.667 0 1 0 0 13.334 6.667 6.667 0 0 0 0-13.334zm0 0V4m0 0 5.333 5.333M16 4l-5.333 5.333"/>
    </symbol>

    <symbol id="icon-cross" viewBox="0 0 32 32">
      <path stroke-linejoin="round" stroke-linecap="round" stroke-width="2.667" d="M24 8 8 24M8 8l16 16"/>
    </symbol>


    <symbol id="icon-check" viewBox="0 0 32 32">
      <path fill="none" stroke="#08aa83" style="stroke:var(--color1, #08aa83)" stroke-linejoin="round" stroke-linecap="round" stroke-width="2.182" d="M26.667 9.333 12 24l-6.667-6.667"/>
    </symbol>
    
   
    <symbol id="icon-color-logo" viewBox="0 0 105 32">
      <path  fill="#262626"style="fill:var(--color2, #262626)" d="M9.226 25.42c-1.475 0-2.711-.35-3.71-1.05s-1.75-1.652-2.254-2.856c-.504-1.213-.756-2.571-.756-4.074 0-1.521.252-2.884.756-4.088s1.241-2.151 2.212-2.842c.98-.7 2.189-1.05 3.626-1.05 1.428 0 2.665.35 3.71 1.05 1.055.691 1.871 1.638 2.45 2.842.579 1.195.868 2.557.868 4.088 0 1.512-.285 2.87-.854 4.074s-1.372 2.156-2.408 2.856c-1.036.7-2.249 1.05-3.64 1.05zm-7.294 6.3V9.88h2.982v10.612h.42V31.72H1.932zm6.776-9.324c.877 0 1.601-.219 2.17-.658s.989-1.031 1.26-1.778c.28-.756.42-1.596.42-2.52 0-.915-.14-1.745-.42-2.492-.28-.756-.714-1.353-1.302-1.792-.588-.448-1.335-.672-2.24-.672-.859 0-1.559.21-2.1.63-.541.411-.943.989-1.204 1.736-.252.737-.378 1.601-.378 2.59 0 .98.126 1.843.378 2.59.261.747.667 1.33 1.218 1.75.56.411 1.293.616 2.198.616zm16.26 3.024c-1.531 0-2.875-.331-4.032-.994s-2.063-1.582-2.716-2.758c-.644-1.176-.966-2.529-.966-4.06 0-1.652.317-3.085.952-4.298.635-1.223 1.517-2.17 2.646-2.842s2.436-1.008 3.92-1.008c1.568 0 2.898.369 3.99 1.106 1.101.728 1.918 1.759 2.45 3.094s.733 2.907.602 4.718h-3.346v-1.232c-.009-1.643-.299-2.842-.868-3.598s-1.465-1.134-2.688-1.134c-1.381 0-2.408.429-3.08 1.288-.672.849-1.008 2.095-1.008 3.738 0 1.531.336 2.716 1.008 3.556s1.652 1.26 2.94 1.26c.831 0 1.545-.182 2.142-.546.607-.373 1.073-.91 1.4-1.61l3.332 1.008c-.579 1.363-1.475 2.422-2.688 3.178-1.204.756-2.534 1.134-3.99 1.134zm-5.208-7.042V15.83h10.402v2.548H19.76zM42.68 25c-.999.187-1.979.266-2.94.238-.952-.019-1.806-.191-2.562-.518a3.55 3.55 0 0 1-1.722-1.582c-.345-.653-.527-1.321-.546-2.002s-.028-1.451-.028-2.31V5.68h3.36v12.95c0 .607.005 1.139.014 1.596.019.457.117.831.294 1.12.336.56.873.873 1.61.938s1.577.028 2.52-.112V25zM32.138 12.526V9.88H42.68v2.646H32.138zM45.091 25V4.42h3.374V25h-3.374z"/>
      <path fill="#f6b83d" style="fill:var(--color3, #f6b83d)" d="M62.493 10.434c-1.839-2.172-4.907-2.756-7.211-.767s-2.629 5.314-.819 7.666c1.159 1.506 4.128 4.3 6.113 6.114.66.603.989.904 1.384 1.025.34.104.728.104 1.067 0 .395-.121.725-.422 1.384-1.025 1.985-1.814 4.954-4.608 6.113-6.114 1.81-2.352 1.525-5.698-.819-7.666s-5.372-1.405-7.211.767z"/>
      <path  fill="#262626"style="fill:var(--color2, #262626)" d="M80.048 25 74.56 9.88h3.374l3.808 10.962L85.536 9.88h3.388L83.436 25h-3.388zm16.596.42c-1.531 0-2.875-.331-4.032-.994s-2.063-1.582-2.716-2.758c-.644-1.176-.966-2.529-.966-4.06 0-1.652.317-3.085.952-4.298.635-1.223 1.517-2.17 2.646-2.842s2.436-1.008 3.92-1.008c1.568 0 2.898.369 3.99 1.106 1.101.728 1.918 1.759 2.45 3.094s.732 2.907.602 4.718h-3.346v-1.232c-.01-1.643-.299-2.842-.868-3.598s-1.465-1.134-2.688-1.134c-1.381 0-2.408.429-3.08 1.288-.672.849-1.008 2.095-1.008 3.738 0 1.531.336 2.716 1.008 3.556s1.652 1.26 2.94 1.26c.831 0 1.545-.182 2.142-.546.607-.373 1.073-.91 1.4-1.61l3.332 1.008c-.579 1.363-1.475 2.422-2.688 3.178-1.204.756-2.534 1.134-3.99 1.134zm-5.208-7.042V15.83h10.402v2.548H91.436z"/>
    </symbol>

    <symbol id="icon-logo-white" viewBox="0 0 106 32">
      <path fill="#fff" style="fill:var(--color4, #fff)" d="M9.38 25.42c-1.503 0-2.758-.35-3.766-1.05s-1.769-1.652-2.282-2.856c-.504-1.204-.756-2.562-.756-4.074s.252-2.87.756-4.074c.504-1.204 1.246-2.156 2.226-2.856s2.189-1.05 3.626-1.05c1.447 0 2.707.345 3.78 1.036s1.904 1.638 2.492 2.842c.597 1.195.896 2.562.896 4.102 0 1.512-.294 2.87-.882 4.074-.579 1.204-1.391 2.156-2.436 2.856s-2.263 1.05-3.654 1.05zm-7.448 6.3V9.88h3.36v10.36h.476v11.48H1.932zm6.832-9.688c.821 0 1.493-.205 2.016-.616s.91-.961 1.162-1.652c.252-.7.378-1.475.378-2.324 0-.84-.131-1.605-.392-2.296-.261-.7-.667-1.255-1.218-1.666-.541-.42-1.237-.63-2.086-.63-.793 0-1.437.191-1.932.574-.485.383-.84.919-1.064 1.61s-.336 1.493-.336 2.408c0 .915.112 1.717.336 2.408s.588 1.227 1.092 1.61c.513.383 1.195.574 2.044.574zm16.577 3.388c-1.549 0-2.917-.331-4.102-.994a7.348 7.348 0 0 1-2.772-2.758c-.663-1.176-.994-2.52-.994-4.032 0-1.652.327-3.089.98-4.312s1.554-2.17 2.702-2.842c1.148-.681 2.469-1.022 3.962-1.022 1.587 0 2.935.373 4.046 1.12s1.932 1.797 2.464 3.15.719 2.945.56 4.774h-3.766v-1.4c0-1.54-.247-2.646-.742-3.318-.485-.681-1.283-1.022-2.394-1.022-1.297 0-2.254.397-2.87 1.19-.607.784-.91 1.946-.91 3.486 0 1.409.303 2.501.91 3.276.616.765 1.517 1.148 2.702 1.148.747 0 1.386-.163 1.918-.49s.938-.798 1.218-1.414l3.808 1.092c-.569 1.381-1.47 2.455-2.702 3.22a7.43 7.43 0 0 1-4.018 1.148zm-5.012-6.916v-2.828h10.024v2.828H20.329zM43.3 25c-1.045.196-2.072.28-3.08.252-.999-.019-1.895-.191-2.688-.518a3.635 3.635 0 0 1-1.792-1.61c-.373-.691-.569-1.391-.588-2.1a93.294 93.294 0 0 1-.028-2.436V5.68h3.808v12.684c0 .588.005 1.12.014 1.596.019.467.117.84.294 1.12.336.532.873.821 1.61.868s1.554.009 2.45-.112V25zM32.548 12.82V9.88H43.3v2.94H32.548zM45.829 25V4.42h3.808V25h-3.808zM63.493 10.434c-1.839-2.172-4.907-2.756-7.211-.767s-2.629 5.314-.819 7.666c1.159 1.506 4.128 4.3 6.113 6.114.66.603.989.904 1.384 1.025.34.104.728.104 1.067 0 .395-.121.725-.422 1.384-1.025 1.985-1.814 4.954-4.608 6.113-6.114 1.81-2.352 1.525-5.698-.819-7.666s-5.372-1.405-7.211.767zM81.048 25 75.56 9.88h3.374l3.808 10.962L86.536 9.88h3.388L84.436 25h-3.388zm16.596.42c-1.531 0-2.875-.331-4.032-.994s-2.063-1.582-2.716-2.758c-.644-1.176-.966-2.529-.966-4.06 0-1.652.317-3.085.952-4.298.635-1.223 1.517-2.17 2.646-2.842s2.436-1.008 3.92-1.008c1.568 0 2.898.369 3.99 1.106 1.101.728 1.918 1.759 2.45 3.094s.732 2.907.602 4.718h-3.346v-1.232c-.01-1.643-.299-2.842-.868-3.598s-1.466-1.134-2.688-1.134c-1.381 0-2.408.429-3.08 1.288-.672.849-1.008 2.095-1.008 3.738 0 1.531.336 2.716 1.008 3.556s1.652 1.26 2.94 1.26c.831 0 1.545-.182 2.142-.546.606-.373 1.073-.91 1.4-1.61l3.332 1.008c-.579 1.363-1.475 2.422-2.688 3.178-1.204.756-2.534 1.134-3.99 1.134zm-5.208-7.042V15.83h10.402v2.548H92.436z"/>
    </symbol>

<symbol id="icon-burger" viewBox="0 0 28 28">
  <path d="M3.029 6.129a1.175 1.175 0 0 0-.346.307c-.126.18-.14.233-.14.564 0 .331.014.384.14.564.077.109.233.248.347.308l.206.109 10.81-.012 10.811-.012.172-.117c.095-.064.23-.199.3-.299.112-.161.128-.226.128-.545 0-.326-.014-.381-.14-.56a1.175 1.175 0 0 0-.346-.307l-.206-.109H3.235l-.206.109m0 4.666c-.113.06-.269.198-.346.308-.126.179-.14.233-.14.564 0 .33.014.384.14.564.077.109.233.248.347.307l.206.109 8.477-.012 8.477-.012.173-.116c.094-.064.229-.199.299-.3.113-.16.128-.226.128-.544 0-.327-.014-.381-.14-.56a1.179 1.179 0 0 0-.346-.308l-.205-.108H3.235l-.206.108m0 4.667a1.19 1.19 0 0 0-.346.307c-.126.18-.14.234-.14.564 0 .331.014.385.14.564.077.11.233.248.347.308l.206.109 10.81-.012 10.811-.012.172-.117c.095-.064.23-.199.3-.299.112-.161.128-.226.128-.544 0-.327-.014-.381-.14-.561a1.19 1.19 0 0 0-.346-.307l-.206-.109H3.235l-.206.109m0 4.667a1.175 1.175 0 0 0-.346.307c-.126.18-.14.233-.14.564 0 .331.014.384.14.564.077.109.233.248.347.308l.206.109 8.477-.012 8.477-.012.173-.117c.094-.064.229-.199.299-.299.113-.161.128-.226.128-.545 0-.326-.014-.381-.14-.56a1.175 1.175 0 0 0-.346-.307l-.205-.109H3.235l-.206.109"/>
</symbol>
<symbol id="icon-heart-full" viewBox="0 0 35 32">
  <path d="M8.407 2.583c-3.111 0.513-5.578 2.688-6.438 5.679-0.182 0.627-0.287 1.347-0.287 2.092 0 0.032 0 0.063 0.001 0.095l-0-0.005c0 1.635 0.436 3.075 1.351 4.461 0.316 0.48 1.168 1.354 7.389 7.583l7.030 7.040 6.784-6.778c3.729-3.728 6.953-6.988 7.159-7.244 2.012-2.48 2.364-5.894 0.897-8.682-1.103-2.084-3.044-3.599-5.361-4.109l-0.053-0.010c-0.582-0.128-2.070-0.177-2.688-0.089-1.428 0.201-2.699 0.751-3.762 1.562-0.233 0.172-0.935 0.813-1.559 1.424-1.241 1.212-1.337 1.271-1.734 1.081-0.108-0.051-0.444-0.359-0.746-0.684-1.165-1.249-2.31-2.189-3.232-2.653-0.548-0.265-1.188-0.493-1.855-0.65-0.675-0.15-2.18-0.195-2.851-0.084z"/>
</symbol>

<symbol id="icon-heart-transparent" viewBox="0 0 38 32">
  <path d="M10.116 0.355c-1.781 0.204-3.386 0.815-4.766 1.737l0.039-0.025c-0.86 0.572-2.125 1.839-2.689 2.692-2.067 3.12-2.317 6.887-0.675 10.211 0.736 1.492 0.527 1.264 8.592 9.348 4.208 4.217 7.479 7.447 7.612 7.516 0.323 0.169 1.037 0.169 1.361 0.001 0.333-0.173 14.714-14.593 15.155-15.197 1.399-1.913 2.065-3.897 2.065-6.144 0-5.167-3.802-9.425-8.977-10.058-0.826-0.1-2.269-0.039-3.094 0.132-1.945 0.406-3.511 1.231-5.1 2.682l-0.73 0.668-0.794-0.727c-0.915-0.839-1.623-1.343-2.521-1.792-1.246-0.643-2.716-1.028-4.274-1.05-0.156-0.006-0.34-0.009-0.524-0.009-0.237 0-0.472 0.005-0.706 0.016zM12.121 3.309c1.078 0.161 2.209 0.611 3.069 1.217 0.225 0.159 0.979 0.847 1.673 1.527 1.343 1.316 1.472 1.407 2.047 1.407 0.573 0 0.704-0.09 2.047-1.405 0.735-0.721 1.447-1.36 1.703-1.529 1.367-0.896 2.774-1.295 4.349-1.231 3.735 0.141 6.729 3.126 6.884 6.844 0.076 1.703-0.388 3.261-1.373 4.601-0.269 0.368-2.413 2.556-6.999 7.148l-6.611 6.618-6.64-6.649c-3.652-3.658-6.771-6.823-6.929-7.034-0.865-1.126-1.409-2.54-1.473-4.077-0.166-3.591 2.448-6.833 5.967-7.404l0.567-0.095c0.272-0.054 1.177-0.022 1.721 0.061z"/>
</symbol>


<symbol id="icon-star" viewBox="0 0 32 32">
  <path d="M14.72 7.556c-0.686 1.345-1.17 2.226-1.67 3.097l0.214-0.405c-0.321 0.447-0.72 0.815-1.18 1.092l-0.018 0.010c-0.464 0.246-0.874 0.338-3.64 0.81-1.375 0.216-2.269 0.382-3.159 0.562l0.521-0.088c-0.090 0.036 0.182 0.336 1.92 2.12 2.14 2.198 2.314 2.408 2.54 3.112s0.2 1.154-0.238 4.174c-0.214 1.488-0.372 2.706-0.346 2.706 0.024 0 1.19-0.562 2.59-1.248 1.466-0.72 2.692-1.288 2.892-1.342 0.458-0.12 1.25-0.12 1.708 0 0.2 0.054 1.426 0.622 2.892 1.342 1.4 0.686 2.566 1.248 2.59 1.248 0.026 0-0.132-1.218-0.346-2.706-0.438-3.028-0.464-3.484-0.24-4.174 0.23-0.702 0.404-0.916 2.54-3.112 1.718-1.768 2.006-2.086 1.92-2.122-0.351-0.090-1.282-0.262-2.218-0.42l-0.528-0.074c-2.75-0.474-3.148-0.564-3.606-0.83-0.446-0.284-0.82-0.638-1.116-1.052l-0.008-0.012c-0.281-0.457-0.764-1.337-1.232-2.226l-0.222-0.462c-0.63-1.239-1.056-2.019-1.493-2.791l0.213 0.409c-0.014 0-0.59 1.072-1.28 2.382z"/>
</symbol>
   
    
    <symbol id="icon-user" viewBox="0 0 32 32">
      <path fill="#f6b83d" style="fill:var(--color3, #f6b83d);stroke:var(--color3, #f6b83d)" stroke="#f6b83d" stroke-linejoin="round" stroke-linecap="round" stroke-width="2.667" d="M16 20c-4.227 0-7.986 2.041-10.379 5.208-.515.682-.773 1.022-.764 1.483.006.356.23.805.51 1.025.362.284.865.284 1.869.284h17.527c1.005 0 1.507 0 1.869-.284.28-.22.503-.669.51-1.025.008-.461-.249-.801-.764-1.483C23.985 22.041 20.226 20 15.999 20zM16 16a6 6 0 1 0 0-12 6 6 0 0 0 0 12z"/>
    </symbol>
    <symbol id="icon-trash" viewBox="0 0 32 32">
      <path fill="none" stroke="#f6b83d" style="stroke:var(--color3, #f6b83d)" stroke-linejoin="round" stroke-linecap="round" stroke-width="2.667" d="M4 8h24M25.333 8v18.667a2.668 2.668 0 0 1-2.667 2.667H9.333a2.668 2.668 0 0 1-2.667-2.667V8m4.001 0V5.333a2.668 2.668 0 0 1 2.667-2.667h5.333a2.668 2.668 0 0 1 2.667 2.667V8M13.333 14.667v8M18.667 14.667v8"/>
    </symbol>
    <symbol id="icon-paw" viewBox="0 0 32 32">
      <path fill="#f6b83d" style="fill:var(--color3, #f6b83d)" d="M12.5 5c-1.07 0-2.002.608-2.594 1.438S9 8.34 9 9.5s.314 2.233.906 3.063S11.43 14 12.5 14s2.002-.608 2.594-1.438c.592-.83.906-1.902.906-3.062s-.314-2.233-.906-3.063C14.502 5.607 13.57 5 12.5 5zM16 9.5c0 1.16.314 2.233.906 3.063S18.431 14 19.5 14c1.07 0 2.002-.608 2.594-1.438S23 10.66 23 9.5s-.314-2.233-.906-3.063C21.502 5.607 20.57 5 19.5 5s-2.002.608-2.594 1.438C16.314 7.268 16 8.34 16 9.5zM12.5 7c.312 0 .656.156.97.594.31.437.53 1.133.53 1.906s-.22 1.47-.53 1.906c-.314.438-.658.594-.97.594s-.656-.156-.97-.594c-.31-.437-.53-1.133-.53-1.906s.22-1.47.53-1.906c.314-.438.658-.594.97-.594zm7 0c.312 0 .656.156.97.594.31.437.53 1.133.53 1.906s-.22 1.47-.53 1.906c-.314.438-.658.594-.97.594s-.656-.156-.97-.594c-.31-.437-.53-1.133-.53-1.906s.22-1.47.53-1.906c.314-.438.658-.594.97-.594zm-12 5c-1.07 0-2.002.608-2.594 1.438S4 15.34 4 16.5s.314 2.233.906 3.063C5.498 20.393 6.43 21 7.5 21s2.002-.608 2.594-1.438c.592-.83.906-1.902.906-3.062s-.314-2.233-.906-3.063C9.502 12.607 8.57 12 7.5 12zm17 0c-1.07 0-2.002.608-2.594 1.438S21 15.34 21 16.5s.314 2.233.906 3.063C22.498 20.393 23.43 21 24.5 21s2.002-.608 2.594-1.438c.592-.83.906-1.902.906-3.062s-.314-2.233-.906-3.063C26.502 12.607 25.57 12 24.5 12zm-17 2c.312 0 .656.156.97.594.31.437.53 1.133.53 1.906s-.22 1.47-.53 1.906c-.314.438-.658.594-.97.594s-.656-.156-.97-.594C6.22 17.97 6 17.273 6 16.5s.22-1.47.53-1.906c.314-.438.658-.594.97-.594zm17 0c.312 0 .656.156.97.594.31.437.53 1.133.53 1.906s-.22 1.47-.53 1.906c-.314.438-.658.594-.97.594s-.656-.156-.97-.594c-.31-.437-.53-1.133-.53-1.906s.22-1.47.53-1.906c.314-.438.658-.594.97-.594zM16 16c-1.333 0-2.263.865-2.72 1.625-.454.76-.734 1.392-1 1.656-.153.157-1.118.52-2.124 1.033-.503.257-1.01.6-1.437 1.125-.43.525-.72 1.25-.72 2.063 0 1.92 1.58 3.5 3.5 3.5.866 0 1.77-.28 2.655-.53C15.043 26.216 16 26 16 26s.957.216 1.844.47c.886.25 1.79.53 2.656.53 1.92 0 3.5-1.58 3.5-3.5 0-.794-.293-1.52-.72-2.03-.425-.513-.937-.83-1.436-1.095-1-.53-1.983-.95-2.125-1.094-.24-.237-.51-.89-.97-1.654C18.29 16.86 17.34 16 16 16zm0 2c.66 0 .733.16 1.03.656.3.495.524 1.336 1.25 2.063.825.82 1.867 1 2.626 1.404.38.202.67.417.844.625.173.207.25.396.25.75 0 .84-.66 1.5-1.5 1.5-.29 0-1.224-.22-2.094-.47-.87-.247-1.59-.53-2.406-.53s-1.536.283-2.406.53c-.87.25-1.804.47-2.094.47-.84 0-1.5-.66-1.5-1.5 0-.403.084-.61.25-.814.166-.203.472-.404.844-.593.744-.38 1.78-.53 2.625-1.375.733-.737.953-1.605 1.25-2.095.292-.49.362-.625 1.03-.625L16 18z"/>
    </symbol>
    <symbol id="icon-upload-cloud" viewBox="0 0 32 32">
      <path fill="none" stroke="#f6b83d" style="stroke:var(--color3, #f6b83d)" stroke-linejoin="round" stroke-linecap="round" stroke-width="2.311" d="M16 16v12M27.187 24.52a6.671 6.671 0 0 0 3.27-7.497A6.669 6.669 0 0 0 24.001 12h-1.68a10.659 10.659 0 0 0-10.72-7.99 10.66 10.66 0 0 0-10.103 8.757 10.669 10.669 0 0 0 2.503 8.967"/>
      <path fill="none" stroke="#f6b83d" style="stroke:var(--color3, #f6b83d)" stroke-linejoin="round" stroke-linecap="round" stroke-width="2.311" d="M21.333 21.333 16 16l-5.333 5.333"/>
    </symbol>
    <symbol id="icon-heart" viewBox="0 0 32 32">
      <path fill="none" stroke="#f6b83d" style="stroke:var(--color3, #f6b83d)" stroke-linejoin="round" stroke-linecap="round" stroke-width="2.667" d="M27.788 6.147a7.345 7.345 0 0 0-5.187-2.15 7.33 7.33 0 0 0-5.187 2.15L16.001 7.56l-1.413-1.413a7.333 7.333 0 0 0-10.374 0 7.333 7.333 0 0 0 0 10.374l11.787 11.787 11.787-11.787a7.345 7.345 0 0 0 2.149-5.187 7.33 7.33 0 0 0-2.149-5.187z"/>
    </symbol>
    
    <symbol id="icon-eye-on" viewBox="0 0 32 32">
  <path d="M15.2 3.925c-.102.011-.438.046-.747.075-2.469.24-5.189 1.374-7.512 3.138-1.666 1.262-3.355 2.99-4.73 4.835a31.973 31.973 0 0 0-1.802 2.726l-.085.154-.325.584v1.126l.325.584c.389.704 1.262 2.035 1.877 2.864 1.36 1.834 3.082 3.598 4.706 4.824 2.376 1.794 4.885 2.851 7.52 3.173.685.083 2.459.085 3.146 0 4.214-.512 8.104-2.912 11.554-7.128.816-1 1.968-2.686 2.549-3.733l.325-.584v-1.126l-.325-.584a31.14 31.14 0 0 0-1.833-2.809l.062.089c-3.446-4.71-7.826-7.61-12.277-8.131-.522-.062-2.126-.112-2.427-.077zm1.909 2.905c.866.096 1.654.278 2.406.54l-.076-.023c.784.259 2.117.89 2.802 1.326 1.862 1.186 3.632 2.878 5.234 5.006.422.56 1.152 1.637 1.403 2.067l.147.253-.147.253c-.251.43-.981 1.507-1.403 2.067-1.602 2.128-3.371 3.821-5.234 5.006-.799.489-1.723.936-2.692 1.291l-.11.035c-2.864.946-5.667.726-8.45-.658-1.45-.723-2.386-1.384-3.832-2.71-1.318-1.21-3.107-3.442-4.034-5.032l-.147-.253.147-.253c.403-.693 1.325-2.005 1.939-2.76 2.386-2.934 4.912-4.813 7.658-5.696a10.62 10.62 0 0 1 3.304-.515c.382 0 .759.02 1.131.058l-.047-.004zm-1.973 3.808c-3.074.504-5.075 3.44-4.44 6.515.422 2.043 2.11 3.722 4.187 4.162a6.566 6.566 0 0 0 2.273-.006 5.498 5.498 0 0 0 4.192-4.162 6.566 6.566 0 0 0-.006-2.273c-.442-2.08-2.115-3.762-4.168-4.189a6.485 6.485 0 0 0-2.044-.052zm1.533 2.885c.821.213 1.597.989 1.81 1.808.17.658.054 1.462-.285 1.992-.501.779-1.312 1.237-2.194 1.237-.696 0-1.23-.221-1.76-.725a2.505 2.505 0 0 1-.715-2.521c.21-.806.986-1.59 1.786-1.806a3.086 3.086 0 0 1 1.382.002z"/>
</symbol>

    <symbol id="icon-eye" viewBox="0 0 32 32">
      <path fill="none"  stroke="#f6b83d" style="stroke:var(--color3, #f6b83d)" stroke-linejoin="round" stroke-linecap="round" stroke-width="2.909" d="M1.332 16S6.665 5.333 15.999 5.333 30.666 16 30.666 16s-5.333 10.667-14.667 10.667C6.666 26.667 1.332 16 1.332 16z"/>
      <path fill="none"  stroke="#f6b83d" style="stroke:var(--color3, #f6b83d)" stroke-linejoin="round" stroke-linecap="round" stroke-width="2.909" d="M16 20a4 4 0 1 0 0-8 4 4 0 0 0 0 8z"/>
    </symbol>
    <symbol id="icon-edit" viewBox="0 0 32 32">
      <path fill="none" stroke="#f6b83d" style="stroke:var(--color3, #f6b83d)" stroke-linejoin="round" stroke-linecap="round" stroke-width="2.667" d="M22.667 4a3.766 3.766 0 0 1 4.109-.817 3.766 3.766 0 0 1 2.327 3.484 3.779 3.779 0 0 1-1.104 2.666l-18 18-7.333 2 2-7.333 18-18z"/>
    </symbol>
    <symbol id="icon-calendar" viewBox="0 0 32 32">
      <path stroke-linejoin="round" stroke-linecap="round" stroke-width="2.88" d="M25.333 5.333H6.666A2.667 2.667 0 0 0 3.999 8v18.667a2.667 2.667 0 0 0 2.667 2.667h18.667A2.667 2.667 0 0 0 28 26.667V8a2.667 2.667 0 0 0-2.667-2.667zM21.333 2.667V8M10.667 2.667V8M4 13.333h24"/>
    </symbol>
    <symbol id="icon-arrow-down" viewBox="0 0 32 32">
      <path stroke-linejoin="round" stroke-linecap="round" stroke-width="3.556" d="m8 12 8 8 8-8"/>
    </symbol>
  </defs>
</svg>
